<svg width="20" height="15" viewBox="0 0 20 15" fill="none" xmlns="http://www.w3.org/2000/svg">
<path d="M7.2 7.40001C8.15478 7.40001 9.07045 7.02073 9.74559 6.3456C10.4207 5.67047 10.8 4.75479 10.8 3.80001C10.8 2.84523 10.4207 1.92956 9.74559 1.25443C9.07045 0.579297 8.15478 0.200012 7.2 0.200012C6.24522 0.200012 5.32955 0.579297 4.65442 1.25443C3.97929 1.92956 3.6 2.84523 3.6 3.80001C3.6 4.75479 3.97929 5.67047 4.65442 6.3456C5.32955 7.02073 6.24522 7.40001 7.2 7.40001ZM9.6 3.80001C9.6 4.43653 9.34714 5.04698 8.89706 5.49707C8.44697 5.94716 7.83652 6.20001 7.2 6.20001C6.56348 6.20001 5.95303 5.94716 5.50294 5.49707C5.05286 5.04698 4.8 4.43653 4.8 3.80001C4.8 3.16349 5.05286 2.55304 5.50294 2.10296C5.95303 1.65287 6.56348 1.40001 7.2 1.40001C7.83652 1.40001 8.44697 1.65287 8.89706 2.10296C9.34714 2.55304 9.6 3.16349 9.6 3.80001ZM14.4 13.4C14.4 14.6 13.2 14.6 13.2 14.6H1.2C1.2 14.6 0 14.6 0 13.4C0 12.2 1.2 8.60001 7.2 8.60001C13.2 8.60001 14.4 12.2 14.4 13.4ZM13.2 13.3952C13.1988 13.1 13.0152 12.212 12.2016 11.3984C11.4192 10.616 9.9468 9.80001 7.2 9.80001C4.452 9.80001 2.9808 10.616 2.1984 11.3984C1.3848 12.212 1.2024 13.1 1.2 13.3952H13.2Z" fill="#FFB13C"/>
<path d="M14.3999 2.39502C14.3999 2.23721 14.4589 2.08587 14.5639 1.97429C14.6689 1.86271 14.8114 1.80002 14.9599 1.80002H19.4399C19.5884 1.80002 19.7309 1.86271 19.8359 1.97429C19.9409 2.08587 19.9999 2.23721 19.9999 2.39502C19.9999 2.55282 19.9409 2.70416 19.8359 2.81575C19.7309 2.92733 19.5884 2.99002 19.4399 2.99002H14.9599C14.8114 2.99002 14.6689 2.92733 14.5639 2.81575C14.4589 2.70416 14.3999 2.55282 14.3999 2.39502ZM14.9599 5.37002C14.8114 5.37002 14.6689 5.43271 14.5639 5.54429C14.4589 5.65587 14.3999 5.80721 14.3999 5.96502C14.3999 6.12282 14.4589 6.27416 14.5639 6.38575C14.6689 6.49733 14.8114 6.56002 14.9599 6.56002H19.4399C19.5884 6.56002 19.7309 6.49733 19.8359 6.38575C19.9409 6.27416 19.9999 6.12282 19.9999 5.96502C19.9999 5.80721 19.9409 5.65587 19.8359 5.54429C19.7309 5.43271 19.5884 5.37002 19.4399 5.37002H14.9599ZM17.1999 8.94002C17.0514 8.94002 16.9089 9.00271 16.8039 9.11429C16.6989 9.22587 16.6399 9.37721 16.6399 9.53502C16.6399 9.69282 16.6989 9.84416 16.8039 9.95575C16.9089 10.0673 17.0514 10.13 17.1999 10.13H19.4399C19.5884 10.13 19.7309 10.0673 19.8359 9.95575C19.9409 9.84416 19.9999 9.69282 19.9999 9.53502C19.9999 9.37721 19.9409 9.22587 19.8359 9.11429C19.7309 9.00271 19.5884 8.94002 19.4399 8.94002H17.1999ZM17.1999 12.51C17.0514 12.51 16.9089 12.5727 16.8039 12.6843C16.6989 12.7959 16.6399 12.9472 16.6399 13.105C16.6399 13.2628 16.6989 13.4142 16.8039 13.5257C16.9089 13.6373 17.0514 13.7 17.1999 13.7H19.4399C19.5884 13.7 19.7309 13.6373 19.8359 13.5257C19.9409 13.4142 19.9999 13.2628 19.9999 13.105C19.9999 12.9472 19.9409 12.7959 19.8359 12.6843C19.7309 12.5727 19.5884 12.51 19.4399 12.51H17.1999Z" fill="#FFB13C"/>
</svg>
