<svg width="25" height="24" viewBox="0 0 25 24" fill="none" xmlns="http://www.w3.org/2000/svg">
<g clip-path="url(#clip0_2_315)">
<path d="M12.2146 5.21366L11.1391 4.0836C8.61456 1.43094 3.98556 2.34634 2.31456 5.68133C1.53006 7.24992 1.35306 9.51465 2.78556 12.405C4.16556 15.188 7.03656 18.5214 12.2146 22.1523C17.3926 18.5214 20.2621 15.188 21.6436 12.405C23.0761 9.51311 22.9006 7.24992 22.1146 5.68133C20.4436 2.34634 15.8146 1.42941 13.2901 4.08206L12.2146 5.21366ZM12.2146 24C-10.7849 8.46432 5.13306 -3.66124 11.9506 2.75267C12.0406 2.837 12.1291 2.9244 12.2146 3.01487C12.2992 2.92448 12.3873 2.83753 12.4786 2.7542C19.2946 -3.66431 35.2141 8.46278 12.2146 24Z" fill="black"/>
</g>
<defs>
<clipPath id="clip0_2_315">
<rect width="24" height="24" fill="white" transform="translate(0.2146)"/>
</clipPath>
</defs>
</svg>
