<svg width="25" height="24" viewBox="0 0 25 24" fill="none" xmlns="http://www.w3.org/2000/svg">
<path d="M12.2146 12C13.6733 12 15.0722 11.4205 16.1037 10.3891C17.1351 9.35764 17.7146 7.95869 17.7146 6.5C17.7146 5.04131 17.1351 3.64236 16.1037 2.61091C15.0722 1.57946 13.6733 1 12.2146 1C10.7559 1 9.35696 1.57946 8.32551 2.61091C7.29406 3.64236 6.7146 5.04131 6.7146 6.5C6.7146 7.95869 7.29406 9.35764 8.32551 10.3891C9.35696 11.4205 10.7559 12 12.2146 12ZM15.8813 6.5C15.8813 7.47246 15.495 8.40509 14.8073 9.09272C14.1197 9.78036 13.1871 10.1667 12.2146 10.1667C11.2421 10.1667 10.3095 9.78036 9.62187 9.09272C8.93424 8.40509 8.54793 7.47246 8.54793 6.5C8.54793 5.52754 8.93424 4.59491 9.62187 3.90727C10.3095 3.21964 11.2421 2.83333 12.2146 2.83333C13.1871 2.83333 14.1197 3.21964 14.8073 3.90727C15.495 4.59491 15.8813 5.52754 15.8813 6.5ZM23.2146 21.1667C23.2146 23 21.3813 23 21.3813 23H3.04793C3.04793 23 1.2146 23 1.2146 21.1667C1.2146 19.3333 3.04793 13.8333 12.2146 13.8333C21.3813 13.8333 23.2146 19.3333 23.2146 21.1667ZM21.3813 21.1593C21.3794 20.7083 21.0989 19.3517 19.8559 18.1087C18.6606 16.9133 16.4111 15.6667 12.2146 15.6667C8.01627 15.6667 5.7686 16.9133 4.57327 18.1087C3.33027 19.3517 3.0516 20.7083 3.04793 21.1593H21.3813Z" fill="black"/>
</svg>
