<svg width="28" height="28" viewBox="0 0 28 28" fill="none" xmlns="http://www.w3.org/2000/svg">
<rect width="28" height="28" rx="14" fill="#FFB13C"/>
<path fill-rule="evenodd" clip-rule="evenodd" d="M12.6 17.3385C13.2223 17.3385 13.8384 17.2159 14.4133 16.9778C14.9882 16.7396 15.5106 16.3906 15.9506 15.9506C16.3906 15.5106 16.7396 14.9882 16.9778 14.4133C17.2159 13.8384 17.3385 13.2223 17.3385 12.6C17.3385 11.9777 17.2159 11.3616 16.9778 10.7867C16.7396 10.2118 16.3906 9.68941 15.9506 9.2494C15.5106 8.80939 14.9882 8.46036 14.4133 8.22223C13.8384 7.9841 13.2223 7.86154 12.6 7.86154C11.3433 7.86154 10.138 8.36077 9.2494 9.2494C8.36077 10.138 7.86154 11.3433 7.86154 12.6C7.86154 13.8567 8.36077 15.062 9.2494 15.9506C10.138 16.8392 11.3433 17.3385 12.6 17.3385ZM18.2 12.6C18.2 14.0852 17.61 15.5096 16.5598 16.5598C15.5096 17.61 14.0852 18.2 12.6 18.2C11.1148 18.2 9.69041 17.61 8.6402 16.5598C7.59 15.5096 7 14.0852 7 12.6C7 11.1148 7.59 9.69041 8.6402 8.6402C9.69041 7.59 11.1148 7 12.6 7C14.0852 7 15.5096 7.59 16.5598 8.6402C17.61 9.69041 18.2 11.1148 18.2 12.6Z" fill="white"/>
<path d="M15.4 16.7848C15.4297 16.8244 15.4614 16.8621 15.4971 16.8987L19.3091 20.7098C19.4948 20.8955 19.7467 20.9999 20.0093 21C20.272 21.0001 20.5239 20.8959 20.7097 20.7103C20.8955 20.5246 20.9999 20.2728 21 20.0103C21.0001 19.7477 20.8959 19.4958 20.7102 19.3101L16.8981 15.499C16.8627 15.4632 16.8247 15.4301 16.7843 15.4C16.3958 15.9295 15.9291 16.3968 15.4 16.7858V16.7848Z" fill="white"/>
</svg>
