<svg width="20" height="20" viewBox="0 0 20 20" fill="none" xmlns="http://www.w3.org/2000/svg">
<g clip-path="url(#clip0_2_292)">
<path d="M9.99988 5.9425C9.46704 5.9425 8.93942 6.04746 8.44715 6.25136C7.95487 6.45527 7.50757 6.75415 7.1308 7.13092C6.75402 7.50769 6.45515 7.95499 6.25124 8.44727C6.04733 8.93955 5.94238 9.46717 5.94238 10C5.94238 10.5328 6.04733 11.0605 6.25124 11.5527C6.45515 12.045 6.75402 12.4923 7.1308 12.8691C7.50757 13.2459 7.95487 13.5447 8.44715 13.7486C8.93942 13.9526 9.46704 14.0575 9.99988 14.0575C11.076 14.0575 12.108 13.63 12.869 12.8691C13.6299 12.1082 14.0574 11.0761 14.0574 10C14.0574 8.92389 13.6299 7.89185 12.869 7.13092C12.108 6.36999 11.076 5.9425 9.99988 5.9425ZM7.19238 10C7.19238 9.25541 7.48817 8.54131 8.01468 8.0148C8.54119 7.48829 9.25529 7.1925 9.99988 7.1925C10.7445 7.1925 11.4586 7.48829 11.9851 8.0148C12.5116 8.54131 12.8074 9.25541 12.8074 10C12.8074 10.7446 12.5116 11.4587 11.9851 11.9852C11.4586 12.5117 10.7445 12.8075 9.99988 12.8075C9.25529 12.8075 8.54119 12.5117 8.01468 11.9852C7.48817 11.4587 7.19238 10.7446 7.19238 10Z" fill="black"/>
<path d="M12.2451 1.67887C11.5864 -0.558627 8.41386 -0.558627 7.75511 1.67887L7.63761 2.07762C7.5916 2.23381 7.51123 2.37773 7.40238 2.49882C7.29353 2.61991 7.15896 2.71511 7.00853 2.77744C6.85811 2.83976 6.69565 2.86764 6.53305 2.85902C6.37045 2.8504 6.21185 2.8055 6.06886 2.72762L5.70386 2.52762C3.65386 1.41262 1.41261 3.65512 2.52886 5.70387L2.72761 6.06887C2.80549 6.21186 2.85038 6.37047 2.859 6.53307C2.86762 6.69566 2.83975 6.85813 2.77742 7.00855C2.7151 7.15897 2.6199 7.29354 2.49881 7.40239C2.37771 7.51124 2.2338 7.59162 2.07761 7.63762L1.67886 7.75512C-0.558643 8.41387 -0.558643 11.5864 1.67886 12.2451L2.07761 12.3626C2.2338 12.4086 2.37771 12.489 2.49881 12.5979C2.6199 12.7067 2.7151 12.8413 2.77742 12.9917C2.83975 13.1421 2.86762 13.3046 2.859 13.4672C2.85038 13.6298 2.80549 13.7884 2.72761 13.9314L2.52761 14.2964C1.41261 16.3464 3.65386 18.5889 5.70386 17.4714L6.06886 17.2726C6.21185 17.1947 6.37045 17.1498 6.53305 17.1412C6.69565 17.1326 6.85811 17.1605 7.00853 17.2228C7.15896 17.2851 7.29353 17.3803 7.40238 17.5014C7.51123 17.6225 7.5916 17.7664 7.63761 17.9226L7.75511 18.3214C8.41386 20.5589 11.5864 20.5589 12.2451 18.3214L12.3626 17.9226C12.4086 17.7664 12.489 17.6225 12.5978 17.5014C12.7067 17.3803 12.8413 17.2851 12.9917 17.2228C13.1421 17.1605 13.3046 17.1326 13.4672 17.1412C13.6298 17.1498 13.7884 17.1947 13.9314 17.2726L14.2964 17.4726C16.3464 18.5889 18.5889 16.3451 17.4714 14.2964L17.2726 13.9314C17.1947 13.7884 17.1498 13.6298 17.1412 13.4672C17.1326 13.3046 17.1605 13.1421 17.2228 12.9917C17.2851 12.8413 17.3803 12.7067 17.5014 12.5979C17.6225 12.489 17.7664 12.4086 17.9226 12.3626L18.3214 12.2451C20.5589 11.5864 20.5589 8.41387 18.3214 7.75512L17.9226 7.63762C17.7664 7.59162 17.6225 7.51124 17.5014 7.40239C17.3803 7.29354 17.2851 7.15897 17.2228 7.00855C17.1605 6.85813 17.1326 6.69566 17.1412 6.53307C17.1498 6.37047 17.1947 6.21186 17.2726 6.06887L17.4726 5.70387C18.5889 3.65387 16.3451 1.41262 14.2964 2.52887L13.9314 2.72762C13.7884 2.8055 13.6298 2.8504 13.4672 2.85902C13.3046 2.86764 13.1421 2.83976 12.9917 2.77744C12.8413 2.71511 12.7067 2.61991 12.5978 2.49882C12.489 2.37773 12.4086 2.23381 12.3626 2.07762L12.2451 1.67887ZM8.95386 2.03262C9.26136 0.988873 10.7389 0.988873 11.0464 2.03262L11.1639 2.43137C11.2626 2.76648 11.4352 3.07523 11.6688 3.335C11.9024 3.59476 12.1912 3.79895 12.514 3.9326C12.8367 4.06624 13.1853 4.12596 13.5342 4.10736C13.8831 4.08876 14.2234 3.99233 14.5301 3.82512L14.8939 3.62512C15.8489 3.10637 16.8939 4.15012 16.3739 5.10637L16.1751 5.47137C16.0082 5.77816 15.912 6.11841 15.8936 6.46719C15.8752 6.81598 15.935 7.16446 16.0688 7.4871C16.2025 7.80975 16.4068 8.09838 16.6666 8.33184C16.9263 8.56531 17.2351 8.7377 17.5701 8.83637L17.9676 8.95387C19.0114 9.26137 19.0114 10.7389 17.9676 11.0464L17.5689 11.1639C17.2338 11.2626 16.925 11.4352 16.6652 11.6688C16.4055 11.9024 16.2013 12.1912 16.0676 12.514C15.934 12.8368 15.8743 13.1854 15.8929 13.5342C15.9115 13.8831 16.0079 14.2234 16.1751 14.5301L16.3751 14.8939C16.8939 15.8489 15.8501 16.8939 14.8939 16.3739L14.5301 16.1751C14.2233 16.0079 13.8829 15.9115 13.534 15.893C13.185 15.8745 12.8364 15.9343 12.5136 16.0681C12.1908 16.2019 11.902 16.4062 11.6685 16.6661C11.4349 16.926 11.2625 17.2349 11.1639 17.5701L11.0464 17.9676C10.7389 19.0114 9.26136 19.0114 8.95386 17.9676L8.83636 17.5689C8.73754 17.2339 8.56505 16.9254 8.33152 16.6657C8.09799 16.4061 7.80935 16.202 7.48672 16.0684C7.16409 15.9347 6.81566 15.875 6.46694 15.8934C6.11823 15.9119 5.77806 16.0082 5.47136 16.1751L5.10636 16.3751C4.15136 16.8939 3.10636 15.8501 3.62636 14.8939L3.82511 14.5301C3.99255 14.2233 4.08917 13.8829 4.10789 13.5339C4.12661 13.1849 4.06695 12.8361 3.93329 12.5132C3.79962 12.1902 3.59535 11.9013 3.33546 11.6676C3.07556 11.4339 2.76664 11.2614 2.43136 11.1626L2.03261 11.0451C0.988857 10.7376 0.988857 9.26012 2.03261 8.95262L2.43136 8.83512C2.76611 8.73626 3.07453 8.5638 3.33404 8.33036C3.59354 8.09692 3.79756 7.80841 3.93117 7.48594C4.06479 7.16348 4.1246 6.81522 4.10625 6.46665C4.0879 6.11808 3.99184 5.77803 3.82511 5.47137L3.62511 5.10637C3.10636 4.15137 4.15011 3.10637 5.10636 3.62637L5.47136 3.82512C5.77806 3.99209 6.11823 4.08834 6.46694 4.10681C6.81566 4.12529 7.16409 4.06552 7.48672 3.93189C7.80935 3.79826 8.09799 3.59416 8.33152 3.33452C8.56505 3.07489 8.73754 2.7663 8.83636 2.43137L8.95386 2.03262Z" fill="black"/>
</g>
<defs>
<clipPath id="clip0_2_292">
<rect width="20" height="20" fill="white"/>
</clipPath>
</defs>
</svg>
