<svg width="25" height="24" viewBox="0 0 25 24" fill="none" xmlns="http://www.w3.org/2000/svg">
<g clip-path="url(#clip0_2_316)">
<path d="M3.99759 7.50002H3.21459C3.10678 7.50012 3.00026 7.52347 2.90229 7.56847C2.80431 7.61347 2.7172 7.67907 2.64687 7.76078C2.57654 7.8425 2.52466 7.93842 2.49476 8.042C2.46485 8.14558 2.45764 8.25439 2.47359 8.36102L4.53159 22.0845C4.61164 22.617 4.87997 23.1031 5.28786 23.4545C5.69575 23.806 6.21616 23.9995 6.75459 24H17.6716C18.2103 23.9999 18.731 23.8065 19.1393 23.455C19.5475 23.1035 19.816 22.6172 19.8961 22.0845L21.9556 8.36102C21.9715 8.25439 21.9643 8.14558 21.9344 8.042C21.9045 7.93842 21.8526 7.8425 21.7823 7.76078C21.712 7.67907 21.6249 7.61347 21.5269 7.56847C21.4289 7.52347 21.3224 7.50012 21.2146 7.50002H20.4316C20.2475 5.44784 19.3021 3.53882 17.7815 2.1485C16.2609 0.758176 14.275 -0.0128174 12.2146 -0.0128174C10.1542 -0.0128174 8.16832 0.758176 6.64769 2.1485C5.12705 3.53882 4.1817 5.44784 3.99759 7.50002ZM5.50509 7.50002C5.68846 5.84897 6.47423 4.32353 7.712 3.21561C8.94978 2.10769 10.5526 1.49512 12.2138 1.49512C13.875 1.49512 15.4779 2.10769 16.7157 3.21561C17.9535 4.32353 18.7392 5.84897 18.9226 7.50002H5.50509ZM20.3431 9.00002L18.4141 21.861C18.3875 22.0386 18.2981 22.2007 18.1621 22.318C18.0262 22.4353 17.8526 22.4998 17.6731 22.5H6.75459C6.57504 22.4998 6.40151 22.4353 6.26554 22.318C6.12956 22.2007 6.04017 22.0386 6.01359 21.861L4.08459 9.00002H20.3416H20.3431Z" fill="black"/>
</g>
<defs>
<clipPath id="clip0_2_316">
<rect width="24" height="24" fill="white" transform="translate(0.2146)"/>
</clipPath>
</defs>
</svg>
